<svg width="21" height="21" viewBox="0 0 21 21" fill="none" xmlns="http://www.w3.org/2000/svg">
<circle cx="10.5" cy="10.5" r="10.5" fill="#11A0FC"/>
<path d="M8.25 14.0834V10.5834C8.25 10.4287 8.18854 10.2803 8.07915 10.1709C7.96975 10.0615 7.82138 10 7.66667 10H5.33333C5.17862 10 5.03025 10.0615 4.92085 10.1709C4.81146 10.2803 4.75 10.4287 4.75 10.5834V14.0834C4.75 14.2381 4.81146 14.3865 4.92085 14.4959C5.03025 14.6052 5.17862 14.6667 5.33333 14.6667M8.25 14.0834C8.25 14.2381 8.18854 14.3865 8.07915 14.4959C7.96975 14.6052 7.82138 14.6667 7.66667 14.6667H5.33333M8.25 14.0834C8.25 14.2381 8.31146 14.3865 8.42085 14.4959C8.53025 14.6052 8.67862 14.6667 8.83333 14.6667H11.1667C11.3214 14.6667 11.4697 14.6052 11.5791 14.4959C11.6885 14.3865 11.75 14.2381 11.75 14.0834M8.25 14.0834V8.25004C8.25 8.09533 8.31146 7.94696 8.42085 7.83756C8.53025 7.72817 8.67862 7.66671 8.83333 7.66671H11.1667C11.3214 7.66671 11.4697 7.72817 11.5791 7.83756C11.6885 7.94696 11.75 8.09533 11.75 8.25004V14.0834M5.33333 14.6667H13.5M11.75 14.0834C11.75 14.2381 11.8115 14.3865 11.9209 14.4959C12.0303 14.6052 12.1786 14.6667 12.3333 14.6667H14.6667C14.8214 14.6667 14.9697 14.6052 15.0791 14.4959C15.1885 14.3865 15.25 14.2381 15.25 14.0834V5.91671C15.25 5.762 15.1885 5.61362 15.0791 5.50423C14.9697 5.39483 14.8214 5.33337 14.6667 5.33337H12.3333C12.1786 5.33337 12.0303 5.39483 11.9209 5.50423C11.8115 5.61362 11.75 5.762 11.75 5.91671V14.0834Z" stroke="white" stroke-linecap="round" stroke-linejoin="round"/>
</svg>
