<svg width="21" height="21" viewBox="0 0 21 21" fill="none" xmlns="http://www.w3.org/2000/svg">
<circle cx="10.5" cy="10.5" r="10.5" fill="#11A0FC"/>
<g clip-path="url(#clip0_44_73)">
<path d="M8.13678 5.47729H4.59138C4.26503 5.47729 4.00049 5.74184 4.00049 6.06819V9.61359C4.00049 9.93994 4.26503 10.2045 4.59138 10.2045H8.13678C8.46313 10.2045 8.72767 9.93994 8.72767 9.61359V6.06819C8.72767 5.74184 8.46313 5.47729 8.13678 5.47729ZM7.54588 9.02269H5.18228V6.65909H7.54588V9.02269Z" fill="white"/>
<path d="M16.4091 7.25H10.5001C10.1737 7.25 9.90918 7.51454 9.90918 7.8409C9.90918 8.16725 10.1737 8.43179 10.5001 8.43179H16.4091C16.7354 8.43179 17 8.16725 17 7.8409C17 7.51457 16.7354 7.25 16.4091 7.25Z" fill="white"/>
<path d="M16.4091 13.1589H10.5001C10.1737 13.1589 9.90918 13.4235 9.90918 13.7498C9.90918 14.0762 10.1737 14.3407 10.5001 14.3407H16.4091C16.7354 14.3407 17 14.0762 17 13.7498C17 13.4235 16.7354 13.1589 16.4091 13.1589Z" fill="white"/>
<path d="M7.72287 12.148L5.75577 14.0915L5.01597 13.3233C4.789 13.0886 4.41479 13.0824 4.18014 13.3094C3.94549 13.5364 3.93927 13.9106 4.16624 14.1452L5.32085 15.3453C5.43096 15.4577 5.58132 15.5215 5.73862 15.5226H5.74571C5.90064 15.5221 6.04919 15.4608 6.15934 15.3518L8.55013 12.9882C8.79747 12.7754 8.82542 12.4023 8.61256 12.1549C8.39969 11.9076 8.02657 11.8796 7.77923 12.0925C7.75924 12.1097 7.7404 12.1282 7.72287 12.148Z" fill="white"/>
</g>
<defs>
<clipPath id="clip0_44_73">
<rect width="13" height="13" fill="white" transform="translate(4 4)"/>
</clipPath>
</defs>
</svg>
