<svg width="290" height="113" viewBox="0 0 290 113" fill="none" xmlns="http://www.w3.org/2000/svg">
<path d="M17.8512 84.37V87.532H11.5612V108H7.68516V87.532H1.36116V84.37H17.8512ZM40.6466 84.37V108H36.7706V97.664H25.6526V108H21.7766V84.37H25.6526V94.502H36.7706V84.37H40.6466ZM49.6252 87.498V94.434H57.7852V97.596H49.6252V104.838H58.8052V108H45.7492V84.336H58.8052V87.498H49.6252ZM98.2689 84.132V108H92.4549V93.686L87.1169 108H82.4249L77.0529 93.652V108H71.2389V84.132H78.1069L84.8049 100.656L91.4349 84.132H98.2689ZM108.264 88.79V93.618H116.05V98.106H108.264V103.342H117.07V108H102.45V84.132H117.07V88.79H108.264ZM147.874 84.132V108H142.06V93.686L136.722 108H132.03L126.658 93.652V108H120.844V84.132H127.712L134.41 100.656L141.04 84.132H147.874ZM166.505 95.76C167.888 96.0547 168.999 96.746 169.837 97.834C170.676 98.8993 171.095 100.123 171.095 101.506C171.095 103.501 170.393 105.087 168.987 106.266C167.605 107.422 165.667 108 163.173 108H152.055V84.132H162.799C165.225 84.132 167.117 84.6873 168.477 85.798C169.86 86.9087 170.551 88.416 170.551 90.32C170.551 91.7253 170.177 92.8927 169.429 93.822C168.704 94.7513 167.729 95.3973 166.505 95.76ZM157.869 93.788H161.677C162.629 93.788 163.355 93.584 163.853 93.176C164.375 92.7453 164.635 92.122 164.635 91.306C164.635 90.49 164.375 89.8667 163.853 89.436C163.355 89.0053 162.629 88.79 161.677 88.79H157.869V93.788ZM162.153 103.308C163.128 103.308 163.876 103.093 164.397 102.662C164.941 102.209 165.213 101.563 165.213 100.724C165.213 99.8853 164.93 99.228 164.363 98.752C163.819 98.276 163.06 98.038 162.085 98.038H157.869V103.308H162.153ZM180.281 88.79V93.618H188.067V98.106H180.281V103.342H189.087V108H174.467V84.132H189.087V88.79H180.281ZM205.034 108L200.07 98.99H198.676V108H192.862V84.132H202.62C204.501 84.132 206.099 84.4607 207.414 85.118C208.751 85.7753 209.749 86.682 210.406 87.838C211.063 88.9713 211.392 90.2407 211.392 91.646C211.392 93.2327 210.939 94.6493 210.032 95.896C209.148 97.1427 207.833 98.0267 206.088 98.548L211.596 108H205.034ZM198.676 94.876H202.28C203.345 94.876 204.139 94.6153 204.66 94.094C205.204 93.5727 205.476 92.836 205.476 91.884C205.476 90.9773 205.204 90.2633 204.66 89.742C204.139 89.2207 203.345 88.96 202.28 88.96H198.676V94.876ZM223.678 108.238C221.932 108.238 220.368 107.955 218.986 107.388C217.603 106.821 216.492 105.983 215.654 104.872C214.838 103.761 214.407 102.424 214.362 100.86H220.55C220.64 101.744 220.946 102.424 221.468 102.9C221.989 103.353 222.669 103.58 223.508 103.58C224.369 103.58 225.049 103.387 225.548 103.002C226.046 102.594 226.296 102.039 226.296 101.336C226.296 100.747 226.092 100.259 225.684 99.874C225.298 99.4887 224.811 99.1713 224.222 98.922C223.655 98.6727 222.839 98.3893 221.774 98.072C220.232 97.596 218.974 97.12 218 96.644C217.025 96.168 216.186 95.4653 215.484 94.536C214.781 93.6067 214.43 92.394 214.43 90.898C214.43 88.6767 215.234 86.9427 216.844 85.696C218.453 84.4267 220.55 83.792 223.134 83.792C225.763 83.792 227.882 84.4267 229.492 85.696C231.101 86.9427 231.962 88.688 232.076 90.932H225.786C225.74 90.1613 225.457 89.5607 224.936 89.13C224.414 88.6767 223.746 88.45 222.93 88.45C222.227 88.45 221.66 88.6427 221.23 89.028C220.799 89.3907 220.584 89.9233 220.584 90.626C220.584 91.3967 220.946 91.9973 221.672 92.428C222.397 92.8587 223.53 93.3233 225.072 93.822C226.613 94.3433 227.86 94.842 228.812 95.318C229.786 95.794 230.625 96.4853 231.328 97.392C232.03 98.2987 232.382 99.466 232.382 100.894C232.382 102.254 232.03 103.489 231.328 104.6C230.648 105.711 229.65 106.595 228.336 107.252C227.021 107.909 225.468 108.238 223.678 108.238ZM256.632 84.132V108H250.818V98.174H241.774V108H235.96V84.132H241.774V93.482H250.818V84.132H256.632ZM266.643 84.132V108H260.829V84.132H266.643ZM289.046 91.816C289.046 93.1987 288.729 94.468 288.094 95.624C287.459 96.7573 286.485 97.6753 285.17 98.378C283.855 99.0807 282.223 99.432 280.274 99.432H276.67V108H270.856V84.132H280.274C282.178 84.132 283.787 84.4607 285.102 85.118C286.417 85.7753 287.403 86.682 288.06 87.838C288.717 88.994 289.046 90.32 289.046 91.816ZM279.832 94.808C280.943 94.808 281.77 94.5473 282.314 94.026C282.858 93.5047 283.13 92.768 283.13 91.816C283.13 90.864 282.858 90.1273 282.314 89.606C281.77 89.0847 280.943 88.824 279.832 88.824H276.67V94.808H279.832Z" fill="#222222"/>
<path d="M28.1375 91.764C27.1655 91.764 26.4365 91.44 25.9505 90.792C25.4645 90.144 25.2215 89.28 25.2215 88.2C25.2215 86.148 25.9235 84.069 27.3275 81.963C28.5155 80.235 30.1355 78.291 32.1875 76.131C34.2935 73.971 36.5345 71.838 38.9105 69.732C41.2865 67.626 43.5005 65.817 45.5525 64.305C47.9285 62.523 49.8995 61.092 51.4655 60.012C53.0315 58.878 54.5165 57.906 55.9205 57.096C57.3245 56.286 58.9445 55.449 60.7805 54.585C65.7485 45.999 68.7455 37.305 69.7715 28.503C69.8255 28.341 69.8525 27.963 69.8525 27.369C69.8525 25.155 68.9345 24.048 67.0985 24.048C65.7485 24.048 63.9125 24.642 61.5905 25.83C60.1865 26.532 58.7015 27.423 57.1355 28.503C55.5695 29.583 54.1655 30.636 52.9235 31.662C51.6815 32.634 50.8175 33.417 50.3315 34.011C48.3335 36.279 46.5245 38.655 44.9045 41.139C43.3385 43.623 42.1775 45.891 41.4215 47.943C40.8815 49.239 40.6115 50.508 40.6115 51.75C40.6115 53.802 41.6105 54.666 43.6085 54.342C46.1465 53.91 48.5765 53.127 50.8985 51.993C53.2205 50.859 55.1375 49.671 56.6495 48.429C56.9195 48.267 57.2435 48.105 57.6215 47.943C57.9995 47.781 58.2965 47.7 58.5125 47.7C58.6205 47.7 58.6745 47.727 58.6745 47.781C58.6745 47.943 58.5395 48.159 58.2695 48.429C55.6235 50.481 53.1395 52.155 50.8175 53.451C48.5495 54.693 46.1735 55.503 43.6895 55.881C43.2035 55.935 42.7985 55.989 42.4745 56.043C42.1505 56.043 41.8805 56.043 41.6645 56.043C40.0445 56.043 38.8295 55.665 38.0195 54.909C37.2095 54.153 36.8045 53.1 36.8045 51.75C36.8045 49.536 37.7495 46.755 39.6395 43.407C41.5295 40.005 43.9865 36.63 47.0105 33.282C49.2785 30.744 51.6275 28.611 54.0575 26.883C56.4875 25.101 58.8095 23.697 61.0235 22.671C63.2375 21.645 65.1005 21.024 66.6125 20.808C66.7745 20.754 67.0985 20.727 67.5845 20.727C69.2045 20.727 70.5005 21.267 71.4725 22.347C72.4985 23.427 73.0115 24.939 73.0115 26.883C73.0115 27.099 72.9845 27.342 72.9305 27.612C72.9305 27.882 72.9035 28.206 72.8495 28.584C71.6075 36.9 68.8265 45.162 64.5065 53.37L65.8025 52.803C66.3965 52.587 66.8825 52.479 67.2605 52.479C68.0165 52.479 68.3945 52.641 68.3945 52.965C68.3945 53.181 68.1785 53.424 67.7465 53.694C66.8825 54.126 66.0725 54.531 65.3165 54.909C64.5605 55.233 63.8315 55.53 63.1295 55.8C60.5915 59.742 57.7565 63.792 54.6245 67.95C51.5465 72.054 48.3335 75.915 44.9855 79.533C41.6375 83.205 38.2625 86.283 34.8605 88.767C32.1605 90.765 29.9195 91.764 28.1375 91.764ZM29.5145 87.309C30.9185 87.309 32.5385 86.553 34.3745 85.041C36.0485 83.691 37.9115 82.017 39.9635 80.019C42.0695 78.075 44.1485 76.023 46.2005 73.863C48.2525 71.757 50.1155 69.759 51.7895 67.869C53.4635 65.925 54.7055 64.332 55.5155 63.09C56.1635 62.064 56.7575 61.119 57.2975 60.255C57.8375 59.337 58.3235 58.5 58.7555 57.744C57.5675 58.338 56.4335 58.959 55.3535 59.607C54.2735 60.201 53.2475 60.822 52.2755 61.47C51.5735 61.902 50.6825 62.523 49.6025 63.333C48.5225 64.143 47.2265 65.115 45.7145 66.249C43.9325 67.545 41.9885 69.192 39.8825 71.19C37.7765 73.134 35.7785 75.132 33.8885 77.184C32.0525 79.236 30.5405 81.126 29.3525 82.854C28.4345 84.204 27.9755 85.257 27.9755 86.013C27.9755 86.661 28.2455 87.066 28.7855 87.228C28.8395 87.282 29.0825 87.309 29.5145 87.309ZM64.6754 73.377C62.5694 73.377 61.5164 72.432 61.5164 70.542C61.5164 70.434 61.5164 70.245 61.5164 69.975C61.5704 69.705 61.6244 69.381 61.6784 69.003C62.2184 66.789 63.2984 64.656 64.9184 62.604C66.5924 60.498 68.5094 58.662 70.6694 57.096C71.4794 56.448 72.7754 56.124 74.5574 56.124C75.5834 56.124 76.4744 56.286 77.2304 56.61C78.0404 56.88 78.6074 57.312 78.9314 57.906C79.2554 58.446 79.4174 59.067 79.4174 59.769C79.4174 59.877 79.3904 60.039 79.3364 60.255C79.3364 60.471 79.3094 60.714 79.2554 60.984C79.3634 60.93 79.5254 60.903 79.7414 60.903C80.0114 60.903 80.3354 60.876 80.7134 60.822C81.0914 60.768 81.4424 60.714 81.7664 60.66C82.1444 60.606 82.5224 60.579 82.9004 60.579H83.2244C83.8184 60.579 83.8724 60.822 83.3864 61.308C82.9544 61.74 82.3604 62.01 81.6044 62.118L78.8504 62.442C78.3104 63.954 77.3654 65.466 76.0154 66.978C74.7194 68.49 73.2614 69.813 71.6414 70.947C70.0754 72.027 68.5904 72.729 67.1864 73.053C66.3764 73.269 65.5394 73.377 64.6754 73.377ZM75.0434 61.308C75.3674 61.308 75.7454 61.308 76.1774 61.308C76.6634 61.254 77.2034 61.2 77.7974 61.146C77.8514 61.038 77.8784 60.795 77.8784 60.417C77.8784 59.445 77.4734 58.77 76.6634 58.392C76.2314 58.122 75.6914 57.987 75.0434 57.987C74.2334 57.987 73.3964 58.257 72.5324 58.797C71.7224 59.283 70.8584 59.931 69.9404 60.741C71.0744 61.119 72.7754 61.308 75.0434 61.308ZM67.1054 70.542C67.6454 70.542 68.4014 70.299 69.3734 69.813C70.3994 69.273 71.4524 68.571 72.5324 67.707C73.6124 66.843 74.5844 65.925 75.4484 64.953C75.7184 64.683 75.9884 64.359 76.2584 63.981C76.5284 63.549 76.8254 63.117 77.1494 62.685L75.2054 62.928C72.1814 63.36 69.4814 63.603 67.1054 63.657C65.9174 65.601 65.1884 67.221 64.9184 68.517C64.8644 69.219 65.0534 69.732 65.4854 70.056C65.9174 70.38 66.4574 70.542 67.1054 70.542ZM89.488 54.261C88.786 54.261 88.435 54.099 88.435 53.775C88.435 53.505 88.624 53.127 89.002 52.641C89.434 52.101 89.92 51.642 90.46 51.264C91.648 50.508 92.566 49.86 93.214 49.32C93.916 48.78 94.753 47.862 95.725 46.566C95.779 46.674 95.806 46.89 95.806 47.214C95.806 47.916 95.509 48.78 94.915 49.806C94.375 50.778 93.754 51.669 93.052 52.479C92.35 53.289 91.729 53.802 91.189 54.018C90.703 54.18 90.136 54.261 89.488 54.261ZM82.279 74.106C81.847 74.106 81.442 73.944 81.064 73.62C80.686 73.296 80.497 72.864 80.497 72.324C80.497 71.19 81.28 69.111 82.846 66.087L83.737 64.305C83.845 64.197 83.98 63.927 84.142 63.495C84.358 63.063 84.655 62.496 85.033 61.794C85.411 61.038 85.708 60.363 85.924 59.769C86.14 59.175 86.302 58.608 86.41 58.068C86.41 58.014 86.518 57.906 86.734 57.744C86.95 57.582 87.166 57.447 87.382 57.339L87.868 57.258C88.3 57.258 88.651 57.339 88.921 57.501C89.245 57.663 89.353 57.879 89.245 58.149C88.867 58.959 88.543 59.661 88.273 60.255C88.003 60.849 87.787 61.362 87.625 61.794H87.544C86.95 63.144 86.437 64.44 86.005 65.682C85.627 66.87 85.465 68.004 85.519 69.084L85.6 71.271C85.546 71.811 85.357 72.27 85.033 72.648C84.817 72.81 84.52 72.999 84.142 73.215C83.764 73.485 83.278 73.755 82.684 74.025C82.63 74.079 82.495 74.106 82.279 74.106ZM90.4094 73.296C89.4374 73.296 88.9514 72.918 88.9514 72.162C88.9514 71.676 89.1134 71.055 89.4374 70.299C89.8154 69.543 90.1934 68.814 90.5714 68.112C91.5974 66.276 92.5424 64.494 93.4064 62.766C94.2704 61.038 95.1074 59.202 95.9174 57.258C96.2954 56.394 96.8624 55.962 97.6184 55.962C98.4284 55.962 98.6714 56.448 98.3474 57.42C98.0234 58.23 97.6994 58.959 97.3754 59.607C95.8634 62.685 95.1074 64.764 95.1074 65.844C95.1074 66.33 95.2694 66.627 95.5934 66.735C96.3494 66.141 96.9164 65.709 97.2944 65.439C97.6724 65.115 97.8884 64.926 97.9424 64.872C98.6984 64.278 99.5354 63.603 100.453 62.847C101.425 62.037 102.478 61.119 103.612 60.093C105.394 58.473 106.879 57.663 108.067 57.663C109.525 57.663 110.146 58.986 109.93 61.632C109.876 62.658 109.876 63.657 109.93 64.629C109.984 64.845 110.011 65.169 110.011 65.601C110.011 65.979 110.011 66.438 110.011 66.978C110.011 67.518 110.335 67.788 110.983 67.788C111.739 67.788 112.441 67.572 113.089 67.14L114.871 65.925L116.653 64.791C116.761 64.737 116.95 64.71 117.22 64.71C117.544 64.71 117.544 64.953 117.22 65.439C113.818 69.651 111.01 71.757 108.796 71.757C108.364 71.757 107.932 71.676 107.5 71.514C107.122 71.352 106.852 70.893 106.69 70.137C106.528 69.327 106.42 68.463 106.366 67.545C106.366 66.627 106.366 65.925 106.366 65.439L106.447 62.766C106.447 61.632 106.15 61.065 105.556 61.065C104.152 61.065 100.696 63.954 95.1884 69.732C94.7564 70.272 94.0814 71.001 93.1634 71.919C92.2454 72.837 91.3274 73.296 90.4094 73.296Z" fill="#3879FA"/>
</svg>
