<svg width="14" height="14" viewBox="0 0 14 14" fill="none" xmlns="http://www.w3.org/2000/svg">
<g clip-path="url(#clip0_40_393)">
<mask id="mask0_40_393" style="mask-type:luminance" maskUnits="userSpaceOnUse" x="0" y="0" width="14" height="14">
<path d="M0 0H14V14H0V0Z" fill="white"/>
</mask>
<g mask="url(#mask0_40_393)">
<path fill-rule="evenodd" clip-rule="evenodd" d="M6 7C6 6.72386 6.22386 6.5 6.5 6.5H13.5C13.7761 6.5 14 6.72386 14 7C14 7.27615 13.7761 7.5 13.5 7.5H6.5C6.22386 7.5 6 7.27615 6 7Z" fill="#8EAAF1"/>
<path fill-rule="evenodd" clip-rule="evenodd" d="M11.1464 4.64645C11.3417 4.45119 11.6583 4.45119 11.8536 4.64645L13.8536 6.64645C14.0488 6.84171 14.0488 7.15828 13.8536 7.35355L11.8536 9.35355C11.6583 9.54881 11.3417 9.54881 11.1464 9.35355C10.9512 9.15828 10.9512 8.8417 11.1464 8.64644L12.7929 6.99999L11.1464 5.35355C10.9512 5.15828 10.9512 4.84171 11.1464 4.64645Z" fill="#8EAAF1"/>
<path fill-rule="evenodd" clip-rule="evenodd" d="M8.27135 1.12418C7.10085 0.872385 5.88179 0.976535 4.77096 1.42323C3.66014 1.86993 2.70835 2.63874 2.03804 3.63078C1.36772 4.62282 1.00952 5.79272 1.00952 6.98999C1.00952 8.18727 1.36772 9.35717 2.03804 10.3492C2.70835 11.3412 3.66014 12.1101 4.77096 12.5568C5.88179 13.0035 7.10085 13.1076 8.27135 12.8558C9.44185 12.604 10.5102 12.0078 11.3391 11.1438C11.5303 10.9446 11.8468 10.938 12.0461 11.1292C12.2453 11.3204 12.2519 11.6369 12.0607 11.8361C11.0937 12.8441 9.84724 13.5397 8.48165 13.8334C7.11607 14.1272 5.69383 14.0057 4.39787 13.4845C3.10191 12.9634 1.99149 12.0665 1.20945 10.9091C0.427416 9.75169 0.00952148 8.38681 0.00952148 6.98999C0.00952148 5.59317 0.427416 4.22829 1.20945 3.07091C1.99149 1.91353 3.10191 1.01658 4.39787 0.495437C5.69383 -0.0257085 7.11607 -0.147217 8.48165 0.146542C9.84724 0.4403 11.0937 1.13589 12.0607 2.14384C12.2519 2.3431 12.2453 2.65962 12.0461 2.85079C11.8468 3.04197 11.5303 3.03541 11.3391 2.83615C10.5102 1.97219 9.44185 1.37597 8.27135 1.12418Z" fill="#8EAAF1"/>
</g>
</g>
<defs>
<clipPath id="clip0_40_393">
<rect width="14" height="14" fill="white"/>
</clipPath>
</defs>
</svg>
