<?xml version="1.0" encoding="utf-8"?><!-- Uploaded to: SVG Repo, www.svgrepo.com, Generator: SVG Repo Mixer Tools -->
<svg fill="#000000" width="800px" height="800px" viewBox="0 0 1024 1024" xmlns="http://www.w3.org/2000/svg"><path d="M170.711 512c.145.742.752 3.469 3.236 8.427 3.232 6.451 8.674 14.729 16.821 24.371 16.287 19.277 41.083 41.301 73.015 62.135C327.719 648.64 415.746 682.666 512 682.666c96.252 0 184.282-34.027 248.218-75.733 31.932-20.834 56.725-42.859 73.015-62.135 8.145-9.643 13.589-17.92 16.819-24.371 2.483-4.958 3.089-7.684 3.238-8.427-.149-.742-.755-3.469-3.238-8.427-3.23-6.451-8.674-14.729-16.819-24.371-16.29-19.277-41.084-41.301-73.015-62.134-63.936-41.71-151.966-75.735-248.218-75.735-96.253 0-184.28 34.025-248.217 75.735-31.932 20.832-56.727 42.857-73.015 62.134-8.148 9.643-13.589 17.92-16.821 24.371-2.484 4.958-3.091 7.684-3.236 8.427zm46.448-166.402C292.203 296.641 396.176 256 512 256s219.797 40.642 294.839 89.598c37.559 24.502 69.001 51.811 91.575 78.533 20.809 24.628 40.252 55.984 40.252 87.869s-19.443 63.241-40.252 87.868c-22.575 26.722-54.016 54.033-91.575 78.532C731.797 727.36 627.822 768 512 768s-219.797-40.64-294.841-89.6c-37.559-24.499-68.998-51.81-91.574-78.532-20.809-24.627-40.251-55.983-40.251-87.868s19.443-63.241 40.251-87.869c22.576-26.722 54.016-54.031 91.574-78.533z"/><path d="M640 512c0 70.692-57.308 128-128 128s-128-57.308-128-128c0-70.692 57.308-128 128-128s128 57.308 128 128z"/></svg>