<svg width="21" height="24" viewBox="0 0 21 24" fill="none" xmlns="http://www.w3.org/2000/svg">
<path d="M17.027 13.7143C17.413 13.7143 17.7876 13.76 18.1622 13.8171V10.2857C18.1622 9.67951 17.923 9.09813 17.4972 8.66947C17.0715 8.24082 16.494 8 15.8919 8H14.7568V5.71429C14.7568 2.56 12.2141 0 9.08108 0C5.94811 0 3.40541 2.56 3.40541 5.71429V8H2.27027C1.66816 8 1.0907 8.24082 0.664947 8.66947C0.239188 9.09813 0 9.67951 0 10.2857V21.7143C0 22.9829 1.01027 24 2.27027 24H11.1357C10.5568 22.9943 10.2162 21.8286 10.2162 20.5714C10.2162 16.7886 13.2697 13.7143 17.027 13.7143ZM5.67568 5.71429C5.67568 3.81714 7.19676 2.28571 9.08108 2.28571C10.9654 2.28571 12.4865 3.81714 12.4865 5.71429V8H5.67568V5.71429ZM9.08108 18.2857C8.63206 18.2857 8.19313 18.1517 7.81979 17.9005C7.44644 17.6493 7.15546 17.2924 6.98362 16.8747C6.81179 16.457 6.76683 15.9975 6.85443 15.5541C6.94203 15.1107 7.15826 14.7034 7.47576 14.3838C7.79326 14.0641 8.19778 13.8464 8.63817 13.7582C9.07856 13.67 9.53504 13.7153 9.94988 13.8883C10.3647 14.0613 10.7193 14.3542 10.9687 14.7301C11.2182 15.106 11.3514 15.5479 11.3514 16C11.3514 17.2686 10.3411 18.2857 9.08108 18.2857ZM21 18.5714L15.6081 24L12.4865 20.5714L13.8032 19.2457L15.6081 21.0629L19.6832 16.96L21 18.5714Z" fill="#999999"/>
</svg>
