<svg width="84" height="96" viewBox="0 0 84 96" fill="none" xmlns="http://www.w3.org/2000/svg">
<rect y="20" width="84" height="51" fill="#C3CCF3"/>
<path d="M42 0.25C54.0176 0.25 63.75 9.76934 63.75 21.5C63.75 33.2307 54.0176 42.75 42 42.75C29.9824 42.75 20.25 33.2307 20.25 21.5C20.25 9.76934 29.9824 0.25 42 0.25Z" fill="#6E85F6" fill-opacity="0.79" stroke="#8EA0F4" stroke-width="0.5"/>
<path d="M42 54.25C53.0728 54.25 63.6918 58.6489 71.5215 66.4785C79.2922 74.2492 83.6814 84.7675 83.7471 95.75H0.25293C0.2545 95.4874 0.25619 95.225 0.262695 94.9629C0.519641 84.6112 4.61585 74.7222 11.7539 67.2207L12.4785 66.4785C20.3082 58.6489 30.9272 54.25 42 54.25Z" fill="#586FDF" stroke="#4056C1" stroke-width="0.5"/>
</svg>
