<svg width="128" height="85" viewBox="0 0 128 85" fill="none" xmlns="http://www.w3.org/2000/svg">
<path d="M23 0.25H105C108.728 0.25 111.75 3.27208 111.75 7V71.75H16.25V7C16.25 3.27208 19.2721 0.25 23 0.25Z" fill="#586FDF" stroke="#4056C1" stroke-width="0.5"/>
<rect x="0.5" y="79.5" width="127" height="5" rx="0.5" fill="#BFC3DB" stroke="#BBBCD7"/>
<path fill-rule="evenodd" clip-rule="evenodd" d="M88.0156 12.5625C84.7709 12.5625 82.1406 15.3607 82.1406 18.8125V53.1875C82.1406 56.6393 84.7709 59.4375 88.0156 59.4375H112.984C116.229 59.4375 118.859 56.6393 118.859 53.1875V25.6559C118.859 23.8314 118.11 22.098 116.808 20.9106L109.303 14.0671C108.238 13.0962 106.882 12.5625 105.479 12.5625H88.0156ZM110.781 28.9688C110.781 29.8317 110.124 30.5312 109.312 30.5312H96.0938C95.2826 30.5312 94.625 29.8317 94.625 28.9688C94.625 28.1058 95.2826 27.4062 96.0938 27.4062H109.312C110.124 27.4062 110.781 28.1058 110.781 28.9688ZM109.312 37.5625C110.124 37.5625 110.781 36.863 110.781 36C110.781 35.137 110.124 34.4375 109.312 34.4375H96.0938C95.2826 34.4375 94.625 35.137 94.625 36C94.625 36.863 95.2826 37.5625 96.0938 37.5625H109.312ZM110.781 43.0312C110.781 43.8942 110.124 44.5938 109.312 44.5938H96.0938C95.2826 44.5938 94.625 43.8942 94.625 43.0312C94.625 42.1683 95.2826 41.4688 96.0938 41.4688H109.312C110.124 41.4688 110.781 42.1683 110.781 43.0312ZM91.6875 30.5312C92.4987 30.5312 93.1562 29.8317 93.1562 28.9688C93.1562 28.1058 92.4987 27.4062 91.6875 27.4062C90.8763 27.4062 90.2188 28.1058 90.2188 28.9688C90.2188 29.8317 90.8763 30.5312 91.6875 30.5312ZM93.1562 36C93.1562 36.863 92.4987 37.5625 91.6875 37.5625C90.8763 37.5625 90.2188 36.863 90.2188 36C90.2188 35.137 90.8763 34.4375 91.6875 34.4375C92.4987 34.4375 93.1562 35.137 93.1562 36ZM91.6875 44.5938C92.4987 44.5938 93.1562 43.8942 93.1562 43.0312C93.1562 42.1683 92.4987 41.4688 91.6875 41.4688C90.8763 41.4688 90.2188 42.1683 90.2188 43.0312C90.2188 43.8942 90.8763 44.5938 91.6875 44.5938Z" fill="#8C9FF8" fill-opacity="0.86"/>
</svg>
