<svg width="10" height="11" viewBox="0 0 10 11" fill="none" xmlns="http://www.w3.org/2000/svg">
<path d="M5.00012 0C5.54943 0 6.08641 0.161285 6.54315 0.463459C6.99988 0.765633 7.35587 1.19512 7.56608 1.69762C7.77629 2.20012 7.8313 2.75305 7.72413 3.2865C7.61696 3.81995 7.35244 4.30995 6.96402 4.69454C6.5756 5.07914 6.08072 5.34105 5.54196 5.44716C5.0032 5.55327 4.44476 5.49881 3.93726 5.29067C3.42976 5.08253 2.996 4.73005 2.69081 4.27782C2.38563 3.82558 2.22274 3.2939 2.22274 2.75C2.22274 2.02065 2.51536 1.32118 3.03622 0.805456C3.55708 0.289731 4.26351 0 5.00012 0ZM9.9994 9.735C10.0085 10.0581 9.88892 10.3718 9.66656 10.6084C9.44419 10.8451 9.1368 10.9857 8.81068 11H1.18956C0.861446 10.9857 0.552353 10.8435 0.329673 10.6045C0.106994 10.3655 -0.0112089 10.049 0.000838274 9.724V9.372C-0.0087641 8.9338 0.0967703 8.50066 0.307101 8.11499C0.517432 7.72933 0.825344 7.40439 1.20067 7.172C2.34888 6.48418 3.65853 6.10501 5.00012 6.072C6.34171 6.10501 7.65136 6.48418 8.79957 7.172C9.17489 7.40439 9.4828 7.72933 9.69314 8.11499C9.90347 8.50066 10.009 8.9338 9.9994 9.372V9.735Z" fill="#8EAAF1"/>
</svg>
